<svg width="14" height="16" viewBox="0 0 14 16" fill="none" xmlns="http://www.w3.org/2000/svg">
<path d="M9 3.05884L1.4 3.05882M9 3.05884C9 4.1959 9.89544 5.11765 11 5.11765C12.1046 5.11765 13 4.19588 13 3.05882C13 1.92177 12.1046 1 11 1C9.89544 1 9 1.92178 9 3.05884ZM12.6 8H5.00001M5.00001 8C5.00001 9.13705 4.10457 10.0588 3 10.0588C1.89543 10.0588 1 9.13705 1 8C1 6.86295 1.89543 5.94118 3 5.94118C4.10457 5.94118 5.00001 6.86295 5.00001 8ZM9 12.9412H1.4M9 12.9412C9 14.0782 9.89544 15 11 15C12.1046 15 13 14.0782 13 12.9412C13 11.8041 12.1046 10.8824 11 10.8824C9.89544 10.8824 9 11.8041 9 12.9412Z" stroke="#131313" stroke-width="1.5" stroke-linecap="round"/>
</svg>
