<svg width="120" height="120" viewBox="0 0 120 120" fill="none" xmlns="http://www.w3.org/2000/svg">
<path d="M112 60C116.418 60 120.055 63.5974 119.467 67.9765C118.486 75.2955 116.158 82.394 112.578 88.9052C107.71 97.7615 100.683 105.244 92.1496 110.66C83.6165 116.075 73.8538 119.247 63.7674 119.882C53.681 120.516 43.5977 118.593 34.4532 114.29C25.3087 109.987 17.3993 103.443 11.459 95.2671C5.51861 87.0909 1.73978 77.5466 0.473117 67.52C-0.793543 57.4933 0.493017 47.3092 4.21341 37.9125C6.94871 31.004 10.9344 24.6857 15.9481 19.2639C18.9478 16.02 24.0376 16.529 26.854 19.9333L30.4235 24.2482C33.2398 27.6525 32.6807 32.6552 29.9325 36.1147C27.5939 39.0586 25.6913 42.3414 24.2966 45.864C21.9155 51.8779 21.0921 58.3957 21.9028 64.8128C22.7135 71.2299 25.1319 77.3382 28.9337 82.5709C32.7356 87.8037 37.7976 91.9914 43.6501 94.7454C49.5026 97.4993 55.9559 98.7304 62.4112 98.3242C68.8665 97.9181 75.1146 95.888 80.5757 92.4222C86.0369 88.9564 90.5342 84.1674 93.6502 78.4993C95.4754 75.1793 96.792 71.6208 97.5697 67.9423C98.4835 63.6196 101.982 60 106.4 60H112Z" fill="#FBA70A"/>
<path d="M26.5751 20.1657C23.735 16.7811 24.1533 11.6829 27.8854 9.31807C35.2177 4.67201 43.4993 1.65465 52.1682 0.513334C63.4918 -0.977466 75.0056 0.794621 85.3568 5.62137C95.7079 10.4481 104.466 18.129 110.603 27.7615C115.301 35.1359 118.313 43.4195 119.467 52.0227C120.055 56.4018 116.418 59.9993 112 59.9993L106.4 59.9994C101.982 59.9995 98.4835 56.3799 97.5696 52.0571C96.6212 47.5715 94.8726 43.2704 92.386 39.3674C88.4585 33.2026 82.8531 28.2868 76.2283 25.1977C69.6036 22.1086 62.2347 20.9744 54.9877 21.9285C50.3994 22.5326 45.9807 23.9578 41.9349 26.1147C38.0361 28.1932 33.0147 27.8401 30.1747 24.4555L26.5751 20.1657Z" fill="#A368F0"/>
</svg>
