<svg width="120" height="120" viewBox="0 0 120 120" fill="none" xmlns="http://www.w3.org/2000/svg">
<path d="M112 60C116.418 60 120.055 63.5974 119.467 67.9765C118.255 77.0144 114.993 85.694 109.888 93.3342C103.295 103.201 93.9246 110.892 82.961 115.433C71.9974 119.974 59.9334 121.162 48.2946 118.847C36.6557 116.532 25.9647 110.818 17.5736 102.426C9.18244 94.0353 3.468 83.3443 1.15288 71.7054C-1.16223 60.0666 0.0259702 48.0026 4.56723 37.039C9.10849 26.0754 16.7988 16.7047 26.6658 10.1118C34.306 5.00677 42.9856 1.7448 52.0235 0.532522C56.4026 -0.0548558 60 3.58172 60 8V13.6C60 18.0183 56.3803 21.5165 52.0576 22.4303C47.299 23.4364 42.7505 25.3425 38.6661 28.0716C32.3513 32.291 27.4294 38.2883 24.523 45.305C21.6166 52.3216 20.8562 60.0426 22.3378 67.4915C23.8195 74.9403 27.4768 81.7826 32.8471 87.1529C38.2174 92.5232 45.0597 96.1805 52.5085 97.6622C59.9574 99.1438 67.6784 98.3834 74.695 95.477C81.7117 92.5706 87.709 87.6487 91.9284 81.3339C94.6575 77.2495 96.5636 72.701 97.5697 67.9424C98.4835 63.6197 101.982 60 106.4 60H112Z" fill="#FBA70A"/>
<path d="M60 8.00001C60 3.58173 63.5973 -0.0548124 67.9764 0.532552C73.1137 1.22163 78.1514 2.57505 82.961 4.56723C90.2405 7.58252 96.8549 12.0021 102.426 17.5736C107.998 23.1451 112.417 29.7595 115.433 37.039C117.425 41.8486 118.778 46.8863 119.467 52.0236C120.055 56.4027 116.418 60 112 60L106.4 60C101.982 60 98.4835 56.3804 97.5697 52.0577C97.0824 49.7527 96.3829 47.492 95.477 45.305C93.5472 40.6461 90.7187 36.4129 87.1529 32.8471C83.5871 29.2813 79.3539 26.4528 74.695 24.523C72.508 23.6171 70.2473 22.9176 67.9423 22.4303C63.6196 21.5165 60 18.0183 60 13.6L60 8.00001Z" fill="#C2BEEC"/>
</svg>
