<svg width="12" height="16" viewBox="0 0 12 16" fill="none" xmlns="http://www.w3.org/2000/svg">
<path d="M10 4.68421H10.3333C10.7015 4.68421 11 4.35431 11 3.94737V3.57895C11 3.172 10.7015 2.84211 10.3333 2.84211H8.33333M10 4.68421V13.5263C10 14.3402 9.40307 15 8.66667 15H3.33333C2.59695 15 2 14.3402 2 13.5263V4.68421M10 4.68421H2M8.33333 2.84211V2.47368C8.33333 1.65979 7.7364 1 7 1H5C4.26362 1 3.66667 1.65979 3.66667 2.47368V2.84211M8.33333 2.84211H3.66667M2 4.68421H1.66667C1.29848 4.68421 1 4.35431 1 3.94737V3.57895C1 3.172 1.29848 2.84211 1.66667 2.84211H3.66667M4.66667 7.26316V12.4211M7.33333 7.26316V12.4211" stroke="#545454" stroke-width="1.5" stroke-linecap="round"/>
</svg>
