<svg width="16" height="14" viewBox="0 0 16 14" fill="none" xmlns="http://www.w3.org/2000/svg">
<path d="M3.47848 10.4118C3.58719 10.125 3.46087 9.81438 3.20345 9.63663C3.08422 9.55428 2.96654 9.4705 2.85242 9.38193C2.20327 8.88265 1.66404 8.2855 1.33367 7.52643C0.797178 6.29605 0.918029 5.10834 1.62134 3.979C2.35087 2.80764 3.43367 2.0748 4.70195 1.60834C6.80425 0.834549 8.93101 0.796261 11.0568 1.50881C12.3004 1.92551 13.3843 2.59431 14.1877 3.66122C15.3394 5.19248 15.259 7.15015 13.9936 8.60148C12.9681 9.77718 11.642 10.416 10.155 10.7676C9.34774 10.9588 7.25902 10.632 6.72165 11.0706C5.58962 12.0232 4.2908 12.6258 2.84808 12.9298C2.71683 12.9572 2.5823 12.9747 2.44939 12.9938C2.28095 13.0185 2.14314 12.972 2.05673 12.8145C1.97087 12.657 2.00203 12.5137 2.10923 12.3835C2.23391 12.2326 2.3608 12.0828 2.49697 11.9439C2.92828 11.5057 3.26176 10.9833 3.47848 10.4118Z" stroke="#FBFBFB" stroke-width="1.5" stroke-linecap="round"/>
</svg>
