<svg width="14" height="16" viewBox="0 0 14 16" fill="none" xmlns="http://www.w3.org/2000/svg">
<path d="M13 13.2803V6.25374C13 5.79764 12.8109 5.37069 12.4591 5.08164C11.535 4.32207 9.6544 2.81236 8.15791 1.47047C7.49003 0.871591 6.47483 0.833757 5.79469 1.41858L1.59865 5.02665C1.21868 5.35336 1 5.83033 1 6.33237V13.2803C1 14.2301 1.76751 15 2.71429 15H3.14286C4.08963 15 4.85714 14.2301 4.85714 13.2803V11.5605C4.85714 10.6107 5.62463 9.84077 6.57143 9.84077H7.42857C8.37537 9.84077 9.14286 10.6107 9.14286 11.5605V13.2803C9.14286 14.2301 9.91034 15 10.8571 15H11.2857C12.2325 15 13 14.2301 13 13.2803Z" stroke="#FBFBFB" stroke-width="1.5" stroke-linecap="round"/>
</svg>
